<svg width="357" height="281" viewBox="0 0 357 281" fill="none" xmlns="http://www.w3.org/2000/svg">
<g clip-path="url(#clip0_1_1237)">
<path d="M395.001 323.336C395.001 359.047 365.524 388.002 329.169 388.002C292.81 388.002 263.337 359.047 263.337 323.336C263.337 287.621 292.81 258.671 329.169 258.671C365.524 258.671 395.001 287.621 395.001 323.336Z" fill="#F6F7F9"/>
<path d="M312.711 169.749C312.711 201.001 286.922 226.333 255.106 226.333C223.29 226.333 197.501 201.001 197.501 169.749C197.501 138.5 223.29 113.165 255.106 113.165C286.922 113.165 312.711 138.5 312.711 169.749Z" fill="#F6F7F9"/>
<path d="M197.501 290.999C197.501 344.571 153.287 388.001 98.7485 388.001C44.2134 388.001 0 344.571 0 290.999C0 237.426 44.2134 194 98.7485 194C153.287 194 197.501 237.426 197.501 290.999Z" fill="#F6F7F9"/>
<path d="M164.588 80.8358C164.588 125.479 127.743 161.672 82.2942 161.672C36.8452 161.672 0 125.479 0 80.8358C0 36.1922 36.8452 0 82.2942 0C127.743 0 164.588 36.1922 164.588 80.8358Z" fill="#F6F7F9"/>
<path d="M395.002 48.4993C395.002 75.2854 372.893 96.9985 345.624 96.9985C318.354 96.9985 296.249 75.2854 296.249 48.4993C296.249 21.7131 318.354 0 345.624 0C372.893 0 395.002 21.7131 395.002 48.4993Z" fill="#F6F7F9"/>
<path d="M378.54 210.163C378.54 219.092 371.171 226.329 362.082 226.329C352.992 226.329 345.624 219.092 345.624 210.163C345.624 201.238 352.992 194 362.082 194C371.171 194 378.54 201.238 378.54 210.163Z" fill="#F6F7F9"/>
<path d="M255.106 56.5835C255.106 69.9784 244.053 80.8349 230.417 80.8349C216.784 80.8349 205.732 69.9784 205.732 56.5835C205.732 43.1922 216.784 32.3357 230.417 32.3357C244.053 32.3357 255.106 43.1922 255.106 56.5835Z" fill="#F6F7F9"/>
</g>
<defs>
<clipPath id="clip0_1_1237">
<rect width="395" height="388" fill="white"/>
</clipPath>
</defs>
</svg>
