<svg width="28" height="28" viewBox="0 0 28 28" fill="none" xmlns="http://www.w3.org/2000/svg">
<rect width="28" height="28" rx="10" fill="black"/>
<path d="M15.479 13.5413C15.5441 13.2841 15.5413 13.0144 15.4709 12.7585C15.4005 12.5027 15.2648 12.2696 15.0772 12.082C14.8896 11.8944 14.6564 11.7587 14.4006 11.6883C14.1448 11.6178 13.8751 11.615 13.6179 11.6802C13.0832 11.8121 12.6457 12.2496 12.5137 12.7843C12.4486 13.0415 12.4514 13.3113 12.5218 13.5671C12.5923 13.8229 12.7279 14.056 12.9156 14.2436C13.1032 14.4312 13.3363 14.5669 13.5921 14.6373C13.8479 14.7078 14.1176 14.7106 14.3748 14.6454C14.9165 14.5135 15.354 14.076 15.479 13.5413Z" stroke="white" stroke-width="1.5" stroke-linecap="round" stroke-linejoin="round"/>
<path d="M18.1735 17.604C18.7835 17.0357 19.2698 16.3477 19.602 15.583C19.9342 14.8183 20.1051 13.9933 20.104 13.1595C20.104 12.3579 19.9461 11.5642 19.6394 10.8236C19.3326 10.083 18.883 9.41006 18.3161 8.84324C17.7493 8.27641 17.0764 7.82678 16.3358 7.52002M11.6639 7.52002C10.9233 7.82678 10.2504 8.27641 9.68354 8.84324C9.11672 9.41006 8.66709 10.083 8.36033 10.8236C8.05356 11.5642 7.89568 12.3579 7.89568 13.1595C7.89568 14.9234 8.64568 16.5137 9.84706 17.6248" stroke="white" stroke-width="1.5" stroke-linecap="round" stroke-linejoin="round"/>
<path d="M11.2221 15.7708C10.5832 15.0902 10.1873 14.1736 10.1873 13.1597M17.8123 13.1597C17.8123 14.1736 17.4165 15.0833 16.7776 15.7708M11.8193 18.4791C11.0276 19.4722 11.729 20.9374 12.9998 20.9374C13.7782 20.9374 14.2146 20.9374 14.9929 20.9374C16.2637 20.9374 16.9721 19.4652 16.1734 18.4791" stroke="white" stroke-width="1.5" stroke-linecap="round" stroke-linejoin="round"/>
</svg>
