<svg width="28" height="28" viewBox="0 0 28 28" fill="none" xmlns="http://www.w3.org/2000/svg">
<rect width="28" height="28" rx="10" fill="white"/>
<path d="M15.479 13.5417C15.5441 13.2845 15.5413 13.0147 15.4709 12.7589C15.4005 12.5031 15.2648 12.27 15.0772 12.0824C14.8896 11.8948 14.6564 11.7591 14.4006 11.6887C14.1448 11.6182 13.8751 11.6154 13.6179 11.6806C13.0832 11.8125 12.6457 12.25 12.5137 12.7847C12.4486 13.0419 12.4514 13.3117 12.5218 13.5675C12.5923 13.8233 12.7279 14.0564 12.9156 14.244C13.1032 14.4316 13.3363 14.5673 13.5921 14.6377C13.8479 14.7082 14.1176 14.711 14.3748 14.6458C14.9165 14.5139 15.354 14.0764 15.479 13.5417Z" stroke="black" stroke-width="1.5" stroke-linecap="round" stroke-linejoin="round"/>
<path d="M18.1734 17.6042C18.7835 17.0359 19.2698 16.3479 19.602 15.5832C19.9342 14.8185 20.1051 13.9935 20.104 13.1597C20.104 12.3581 19.9461 11.5644 19.6393 10.8238C19.3326 10.0832 18.883 9.41025 18.3161 8.84343C17.7493 8.2766 17.0764 7.82697 16.3358 7.52021M11.6639 7.52021C10.9233 7.82697 10.2504 8.2766 9.68354 8.84343C9.11671 9.41025 8.66708 10.0832 8.36032 10.8238C8.05356 11.5644 7.89567 12.3581 7.89567 13.1597C7.89567 14.9236 8.64567 16.5139 9.84706 17.625" stroke="black" stroke-width="1.5" stroke-linecap="round" stroke-linejoin="round"/>
<path d="M11.2221 15.7708C10.5832 15.0903 10.1873 14.1736 10.1873 13.1597M17.8123 13.1597C17.8123 14.1736 17.4165 15.0833 16.7776 15.7708M11.8193 18.4792C11.0276 19.4722 11.729 20.9375 12.9998 20.9375C13.7782 20.9375 14.2146 20.9375 14.9929 20.9375C16.2637 20.9375 16.9721 19.4653 16.1734 18.4792" stroke="black" stroke-width="1.5" stroke-linecap="round" stroke-linejoin="round"/>
</svg>
