<svg width="50" height="50" viewBox="0 0 50 50" fill="none" xmlns="http://www.w3.org/2000/svg">
<g clip-path="url(#clip0_1_796)">
<path d="M10.4167 6.25H18.75" stroke="black" stroke-width="3" stroke-linecap="round" stroke-linejoin="round"/>
<path d="M14.5833 6.25V31.25" stroke="black" stroke-width="3" stroke-linecap="round" stroke-linejoin="round"/>
<path d="M8.33331 31.25H20.8333V37.5C20.8333 39.1576 20.1748 40.7473 19.0027 41.9194C17.8306 43.0915 16.2409 43.75 14.5833 43.75C12.9257 43.75 11.336 43.0915 10.1639 41.9194C8.99179 40.7473 8.33331 39.1576 8.33331 37.5V31.25Z" stroke="black" stroke-width="3" stroke-linecap="round" stroke-linejoin="round"/>
<path d="M29.1667 43.75V37.5C29.1667 35.8424 29.8252 34.2527 30.9973 33.0806C32.1694 31.9085 33.7591 31.25 35.4167 31.25C37.0743 31.25 38.664 31.9085 39.8361 33.0806C41.0082 34.2527 41.6667 35.8424 41.6667 37.5V43.75" stroke="black" stroke-width="3" stroke-linecap="round" stroke-linejoin="round"/>
<path d="M35.4167 43.75V6.25" stroke="black" stroke-width="3" stroke-linecap="round" stroke-linejoin="round"/>
</g>
<defs>
<clipPath id="clip0_1_796">
<rect width="50" height="50" fill="white"/>
</clipPath>
</defs>
</svg>
