<svg width="50" height="50" viewBox="0 0 50 50" fill="none" xmlns="http://www.w3.org/2000/svg">
<g clip-path="url(#clip0_1_774)">
<path d="M4.16666 35.4167C4.16666 36.5217 4.60564 37.5815 5.38704 38.3629C6.16845 39.1443 7.22825 39.5833 8.33332 39.5833C9.43839 39.5833 10.4982 39.1443 11.2796 38.3629C12.061 37.5815 12.5 36.5217 12.5 35.4167C12.5 34.3116 12.061 33.2518 11.2796 32.4704C10.4982 31.689 9.43839 31.25 8.33332 31.25C7.22825 31.25 6.16845 31.689 5.38704 32.4704C4.60564 33.2518 4.16666 34.3116 4.16666 35.4167Z" stroke="#131313" stroke-width="3" stroke-linecap="round" stroke-linejoin="round"/>
<path d="M22.9167 35.4167C22.9167 36.5217 23.3556 37.5815 24.137 38.3629C24.9184 39.1443 25.9783 39.5833 27.0833 39.5833C28.1884 39.5833 29.2482 39.1443 30.0296 38.3629C30.811 37.5815 31.25 36.5217 31.25 35.4167C31.25 34.3116 30.811 33.2518 30.0296 32.4704C29.2482 31.689 28.1884 31.25 27.0833 31.25C25.9783 31.25 24.9184 31.689 24.137 32.4704C23.3556 33.2518 22.9167 34.3116 22.9167 35.4167Z" stroke="#131313" stroke-width="3" stroke-linecap="round" stroke-linejoin="round"/>
<path d="M27.0833 39.5834H8.33334" stroke="#131313" stroke-width="3" stroke-linecap="round" stroke-linejoin="round"/>
<path d="M8.33334 31.25H27.0833" stroke="#131313" stroke-width="3" stroke-linecap="round" stroke-linejoin="round"/>
<path d="M16.6667 25V14.5834H20.8333C22.4909 14.5834 24.0806 15.2419 25.2527 16.414C26.4248 17.5861 27.0833 19.1758 27.0833 20.8334V31.25" stroke="#131313" stroke-width="3" stroke-linecap="round" stroke-linejoin="round"/>
<path d="M10.4167 31.25V27.0833C10.4167 26.5308 10.6362 26.0009 11.0269 25.6102C11.4176 25.2195 11.9475 25 12.5 25H27.0833" stroke="#131313" stroke-width="3" stroke-linecap="round" stroke-linejoin="round"/>
<path d="M44 20.5833L37.5 10.4166L27.0833 20.8333" stroke="#131313" stroke-width="3" stroke-linecap="round" stroke-linejoin="round"/>
<path d="M44 20.5834C44.873 21.4574 45.4673 22.5706 45.708 23.7822C45.9487 24.9939 45.825 26.2497 45.3524 27.3911C44.8798 28.5324 44.0796 29.5081 43.0528 30.195C42.026 30.8818 40.8187 31.249 39.5833 31.25C37.9263 31.2486 36.3376 30.5891 35.1667 29.4167L44 20.5834Z" stroke="#131313" stroke-width="3" stroke-linecap="round" stroke-linejoin="round"/>
</g>
<defs>
<clipPath id="clip0_1_774">
<rect width="50" height="50" fill="white"/>
</clipPath>
</defs>
</svg>
