<svg width="50" height="50" viewBox="0 0 50 50" fill="none" xmlns="http://www.w3.org/2000/svg">
<g clip-path="url(#clip0_1_788)">
<path d="M40.625 28.275L25 43.75L18.9667 37.775M6.22292 20.8917C6.20551 18.6945 6.88332 16.5481 8.15942 14.7594C9.43552 12.9707 11.2445 11.6313 13.3278 10.9328C15.4111 10.2343 17.6618 10.2125 19.7583 10.8704C21.8547 11.5283 23.6894 12.8323 25 14.5958C25.8615 13.4501 26.9503 12.4944 28.1981 11.7888C29.446 11.0831 30.826 10.6426 32.2519 10.4948C33.6779 10.3471 35.1189 10.4952 36.4849 10.93C37.851 11.3648 39.1126 12.0768 40.1907 13.0216C41.2689 13.9664 42.1405 15.1235 42.7509 16.4206C43.3613 17.7177 43.6974 19.1268 43.7381 20.5598C43.7789 21.9928 43.5235 23.4187 42.9878 24.7484C42.4521 26.0781 41.6477 27.283 40.625 28.2875" stroke="black" stroke-width="3" stroke-linecap="round" stroke-linejoin="round"/>
<path d="M6.25 27.0834H10.4167L14.5833 33.3334L18.75 20.8334L20.8333 27.0834H27.0833" stroke="black" stroke-width="3" stroke-linecap="round" stroke-linejoin="round"/>
</g>
<defs>
<clipPath id="clip0_1_788">
<rect width="50" height="50" fill="white"/>
</clipPath>
</defs>
</svg>
