<svg width="50" height="50" viewBox="0 0 50 50" fill="none" xmlns="http://www.w3.org/2000/svg">
<g clip-path="url(#clip0_1_807)">
<path d="M8.33337 39.5833C8.33337 40.6884 8.77236 41.7482 9.55376 42.5296C10.3352 43.311 11.395 43.75 12.5 43.75C13.6051 43.75 14.6649 43.311 15.4463 42.5296C16.2277 41.7482 16.6667 40.6884 16.6667 39.5833C16.6667 38.4782 16.2277 37.4184 15.4463 36.637C14.6649 35.8556 13.6051 35.4166 12.5 35.4166C11.395 35.4166 10.3352 35.8556 9.55376 36.637C8.77236 37.4184 8.33337 38.4782 8.33337 39.5833Z" stroke="black" stroke-width="3" stroke-linecap="round" stroke-linejoin="round"/>
<path d="M31.25 39.5833C31.25 40.6884 31.689 41.7482 32.4704 42.5296C33.2518 43.311 34.3116 43.75 35.4167 43.75C36.5217 43.75 37.5815 43.311 38.3629 42.5296C39.1443 41.7482 39.5833 40.6884 39.5833 39.5833C39.5833 38.4782 39.1443 37.4184 38.3629 36.637C37.5815 35.8556 36.5217 35.4166 35.4167 35.4166C34.3116 35.4166 33.2518 35.8556 32.4704 36.637C31.689 37.4184 31.25 38.4782 31.25 39.5833Z" stroke="black" stroke-width="3" stroke-linecap="round" stroke-linejoin="round"/>
<path d="M35.4167 35.4167H12.5V6.25H8.33337" stroke="black" stroke-width="3" stroke-linecap="round" stroke-linejoin="round"/>
<path d="M12.5 10.4166L41.6667 12.5L39.5833 27.0833H12.5" stroke="black" stroke-width="3" stroke-linecap="round" stroke-linejoin="round"/>
</g>
<defs>
<clipPath id="clip0_1_807">
<rect width="50" height="50" fill="white"/>
</clipPath>
</defs>
</svg>
