<svg width="26" height="26" viewBox="0 0 26 26" fill="none" xmlns="http://www.w3.org/2000/svg">
<path d="M16.8529 16.7647C17.2059 16.5294 17.6176 16.4118 18.0882 16.4118C18.4412 16.4118 18.7941 16.5294 19.147 16.7647L24.9706 22.7647C25.6765 23.2941 25.6765 24.3529 24.9706 24.8824C24.4412 25.5882 23.3823 25.5882 22.8529 24.8824L16.8529 19.0588C16.6176 18.7059 16.5 18.3529 16.5 18C16.5 17.5294 16.6176 17.1176 16.8529 16.7647Z" fill="#161619"/>
<path fill-rule="evenodd" clip-rule="evenodd" d="M20.9359 10.8984C20.9359 16.337 16.3744 20.8984 10.9359 20.8984C5.32182 20.8984 0.935852 16.337 0.935852 10.8984C0.935852 5.2844 5.32182 0.898438 10.9359 0.898438C16.3744 0.898438 20.9359 5.2844 20.9359 10.8984ZM10.9359 19.3195C15.4973 19.3195 19.3569 15.4598 19.3569 10.8984C19.3569 6.16159 15.4973 2.47738 10.9359 2.47738C6.19901 2.47738 2.5148 6.16159 2.5148 10.8984C2.5148 15.4598 6.19901 19.3195 10.9359 19.3195Z" fill="#161619"/>
</svg>
