<svg width="45" height="42" viewBox="0 0 45 42" fill="none" xmlns="http://www.w3.org/2000/svg">
<rect x="0.765137" width="43.5441" height="42" rx="21" fill="#F8F4F4"/>
<path fill-rule="evenodd" clip-rule="evenodd" d="M32.9035 13.01C31.8667 13.5 30.8507 13.699 29.7932 14C28.631 12.735 26.9079 12.665 25.2522 13.263C23.5965 13.861 22.512 15.323 22.5359 17V18C19.1716 18.083 16.1753 16.605 14.2417 14C14.2417 14 9.90599 21.433 18.3888 25C16.448 26.247 14.5123 27.088 12.1682 27C15.5978 28.803 19.3354 29.423 22.5711 28.517C26.2827 27.477 29.3329 24.794 30.5034 20.775C30.8526 19.5527 31.026 18.2899 31.0187 17.022C31.0166 16.773 32.5842 14.25 32.9035 13.009V13.01Z" fill="#311E70"/>
</svg>
