<svg width="44" height="42" viewBox="0 0 44 42" fill="none" xmlns="http://www.w3.org/2000/svg">
<rect x="0.168091" width="43.5441" height="42" rx="21" fill="#F8F4F4"/>
<g clip-path="url(#clip0_1_1077)">
<path d="M26.6668 14C27.214 14 27.7558 14.1078 28.2613 14.3172C28.7668 14.5266 29.2262 14.8335 29.6131 15.2204C30 15.6073 30.3069 16.0666 30.5163 16.5722C30.7257 17.0777 30.8335 17.6195 30.8335 18.1667V24.8333C30.8335 25.3805 30.7257 25.9223 30.5163 26.4278C30.3069 26.9334 30 27.3927 29.6131 27.7796C29.2262 28.1665 28.7668 28.4734 28.2613 28.6828C27.7558 28.8922 27.214 29 26.6668 29H16.6668C16.1196 29 15.5778 28.8922 15.0723 28.6828C14.5668 28.4734 14.1074 28.1665 13.7205 27.7796C12.9391 26.9982 12.5001 25.9384 12.5001 24.8333V18.1667C12.5001 17.0616 12.9391 16.0018 13.7205 15.2204C14.5019 14.439 15.5617 14 16.6668 14H26.6668ZM19.1668 19V24C19.1669 24.1474 19.2061 24.2921 19.2804 24.4194C19.3547 24.5466 19.4614 24.652 19.5896 24.7246C19.7179 24.7971 19.8631 24.8344 20.0104 24.8326C20.1578 24.8308 20.302 24.7899 20.4285 24.7142L24.5951 22.2142C24.7183 22.1401 24.8203 22.0354 24.8911 21.9102C24.9618 21.7851 24.999 21.6438 24.999 21.5C24.999 21.3562 24.9618 21.2149 24.8911 21.0898C24.8203 20.9646 24.7183 20.8599 24.5951 20.7858L20.4285 18.2858C20.302 18.2101 20.1578 18.1692 20.0104 18.1674C19.8631 18.1656 19.7179 18.2029 19.5896 18.2754C19.4614 18.348 19.3547 18.4534 19.2804 18.5806C19.2061 18.7079 19.1669 18.8526 19.1668 19Z" fill="#311E70"/>
</g>
<defs>
<clipPath id="clip0_1_1077">
<rect width="24.8824" height="24" fill="white" transform="translate(9.50012 9)"/>
</clipPath>
</defs>
</svg>
